<svg xmlns="http://www.w3.org/2000/svg" width="1336" height="768" fill="none" viewBox="0 0 1336 768">
  <g clip-path="url(#a)">
    <path fill="#121212" d="M0 0h1336v768H0z"/>
    <path fill="#252525" d="M-.5 38.5h1337v41H-.5z"/>
    <g clip-path="url(#b)">
      <path fill="#fff" d="M28.667 58.333H20.76l2.42-2.906a.668.668 0 0 0-1.027-.854l-3.333 4a.797.797 0 0 0-.06.1c0 .034 0 .054-.047.087a.664.664 0 0 0-.046.24c0 .082.016.164.046.24 0 .033 0 .053.047.087a.805.805 0 0 0 .06.1l3.333 4a.666.666 0 0 0 .94.086.666.666 0 0 0 .087-.94l-2.42-2.906h7.907a.667.667 0 0 0 0-1.334Z"/>
    </g>
    <g clip-path="url(#c)">
      <path fill="#fff" d="M55.333 59.667h7.907l-2.42 2.906a.668.668 0 0 0 1.027.854l3.333-4a.797.797 0 0 0 .06-.1c0-.034 0-.054.047-.087a.666.666 0 0 0 .046-.24.666.666 0 0 0-.046-.24c0-.033 0-.053-.047-.087a.805.805 0 0 0-.06-.1l-3.333-4a.668.668 0 0 0-1.027.854l2.42 2.906h-7.907a.667.667 0 0 0 0 1.334Z"/>
    </g>
    <g clip-path="url(#d)">
      <path fill="#fff" d="M101.533 59.953a.667.667 0 0 0-.833.434 4.76 4.76 0 0 1-4.58 3.28A4.734 4.734 0 0 1 91.333 59a4.734 4.734 0 0 1 4.787-4.667 4.84 4.84 0 0 1 3.1 1.114l-1.447-.24a.666.666 0 0 0-.757.814.668.668 0 0 0 .544.506l2.827.466h.113a.668.668 0 0 0 .227-.04.212.212 0 0 0 .066-.04.523.523 0 0 0 .134-.073l.06-.073c0-.034.06-.06.086-.1.027-.04 0-.067.034-.094a.858.858 0 0 0 .046-.12l.5-2.666a.674.674 0 0 0-.294-.694.682.682 0 0 0-.754.006.68.68 0 0 0-.285.434l-.18.967a6.14 6.14 0 0 0-4.02-1.5A6.067 6.067 0 0 0 90 59a6.066 6.066 0 0 0 6.12 6 6.08 6.08 0 0 0 5.88-4.213.67.67 0 0 0-.467-.834Z"/>
    </g>
    <rect width="1176" height="32" x="116" y="43" fill="#fff" fill-opacity=".05" rx="4"/>
    <g clip-path="url(#e)">
      <path fill="#fff" d="M134.708 56.833h-.541V55.81a2.168 2.168 0 0 0-3.699-1.532 2.168 2.168 0 0 0-.635 1.532v1.023h-.541a1.623 1.623 0 0 0-1.625 1.625v4.334a1.624 1.624 0 0 0 1.625 1.625h5.416a1.623 1.623 0 0 0 1.625-1.625v-4.334a1.624 1.624 0 0 0-1.625-1.625Zm-3.791-1.023A1.112 1.112 0 0 1 132 54.667a1.116 1.116 0 0 1 1.083 1.143v1.023h-2.166V55.81Zm4.333 6.982a.54.54 0 0 1-.542.541h-5.416a.54.54 0 0 1-.542-.541v-4.334a.54.54 0 0 1 .542-.541h5.416a.54.54 0 0 1 .542.541v4.334Z"/>
      <path fill="#fff" d="M132 59a1.626 1.626 0 1 0 0 3.251A1.626 1.626 0 0 0 132 59Zm0 2.167a.542.542 0 1 1 0-1.085.542.542 0 0 1 0 1.085Z"/>
    </g>
    <path fill="#fff" d="M156.46 61.484a1.61 1.61 0 0 0-.109-.615 1.177 1.177 0 0 0-.37-.492 2.883 2.883 0 0 0-.724-.417 10.186 10.186 0 0 0-1.162-.403 10.672 10.672 0 0 1-1.333-.486 4.66 4.66 0 0 1-1.019-.622 2.455 2.455 0 0 1-.649-.8 2.27 2.27 0 0 1-.226-1.032c0-.387.08-.745.239-1.073a2.52 2.52 0 0 1 .684-.854 3.324 3.324 0 0 1 1.073-.575 4.422 4.422 0 0 1 1.388-.205c.747 0 1.381.144 1.9.43.524.283.923.655 1.197 1.115a2.8 2.8 0 0 1 .41 1.463h-1.313a2 2 0 0 0-.239-.991 1.644 1.644 0 0 0-.725-.684c-.323-.169-.733-.253-1.23-.253-.469 0-.857.07-1.162.212a1.542 1.542 0 0 0-.684.574 1.566 1.566 0 0 0-.218.827c0 .21.043.402.129.575.092.168.231.326.417.471.192.146.433.28.725.404.296.123.649.241 1.06.355.565.16 1.052.337 1.462.533.411.196.748.417 1.012.663.269.242.467.518.595.828.132.305.198.651.198 1.039 0 .405-.082.772-.246 1.1a2.396 2.396 0 0 1-.704.841 3.394 3.394 0 0 1-1.101.54 5.085 5.085 0 0 1-1.422.185 4.93 4.93 0 0 1-1.36-.192 4.06 4.06 0 0 1-1.21-.574 3.012 3.012 0 0 1-.868-.943c-.214-.378-.321-.816-.321-1.313h1.312c0 .342.066.636.198.882.133.242.313.442.54.602.233.16.495.278.787.355.296.073.603.11.922.11.461 0 .85-.064 1.169-.192.319-.127.561-.31.725-.547a1.41 1.41 0 0 0 .253-.84Zm5.886 2.653c-.515 0-.982-.087-1.402-.26a3.187 3.187 0 0 1-1.073-.745 3.308 3.308 0 0 1-.683-1.135 4.15 4.15 0 0 1-.24-1.435v-.288c0-.601.089-1.137.267-1.606a3.6 3.6 0 0 1 .724-1.203 3.108 3.108 0 0 1 1.04-.745 2.982 2.982 0 0 1 1.203-.253c.528 0 .984.09 1.367.273.387.182.704.438.95.766.246.323.428.706.547 1.148a5.5 5.5 0 0 1 .178 1.436v.567H159.7v-1.032h4.259v-.096a3.162 3.162 0 0 0-.205-.957 1.72 1.72 0 0 0-.547-.765c-.251-.2-.592-.301-1.025-.301a1.72 1.72 0 0 0-1.415.718 2.675 2.675 0 0 0-.404.868 4.43 4.43 0 0 0-.143 1.182v.288c0 .35.048.68.143.99.101.306.244.575.431.807.191.233.421.415.69.547.274.132.584.199.93.199.447 0 .825-.092 1.135-.274a2.8 2.8 0 0 0 .813-.731l.766.608c-.16.242-.362.472-.608.69-.247.22-.55.397-.91.534-.355.136-.777.205-1.264.205Zm8.716-1.402v-3.807c0-.292-.06-.545-.178-.76a1.162 1.162 0 0 0-.52-.505c-.232-.118-.519-.178-.861-.178-.319 0-.599.055-.841.164a1.46 1.46 0 0 0-.56.431.94.94 0 0 0-.199.574h-1.264c0-.264.068-.526.205-.786a2.28 2.28 0 0 1 .588-.704 2.93 2.93 0 0 1 .929-.506 3.67 3.67 0 0 1 1.217-.191c.538 0 1.012.09 1.422.273.415.182.738.458.971.827.237.365.355.823.355 1.374v3.446c0 .246.021.508.062.786.045.278.111.517.198.718V64h-1.319a2.374 2.374 0 0 1-.151-.581 4.743 4.743 0 0 1-.054-.684Zm.218-3.22.014.89h-1.278c-.36 0-.682.029-.964.088-.283.055-.52.14-.711.253a1.205 1.205 0 0 0-.438.43c-.1.17-.15.368-.15.596 0 .232.052.444.157.635.105.192.262.344.472.458.214.11.476.164.786.164a2.125 2.125 0 0 0 1.729-.848c.178-.236.274-.467.288-.69l.54.609a1.846 1.846 0 0 1-.26.635 3.036 3.036 0 0 1-.568.67 3.06 3.06 0 0 1-.834.527 2.715 2.715 0 0 1-1.08.205c-.501 0-.941-.098-1.319-.294a2.256 2.256 0 0 1-.875-.786 2.082 2.082 0 0 1-.308-1.115c0-.396.078-.745.233-1.045a2.02 2.02 0 0 1 .67-.76 3.17 3.17 0 0 1 1.053-.464c.41-.105.868-.157 1.374-.157h1.469Zm4.3-1.75V64h-1.265v-7.397h1.231l.034 1.163Zm2.311-1.203-.007 1.176a1.82 1.82 0 0 0-.301-.04 3.196 3.196 0 0 0-.314-.014c-.292 0-.55.045-.773.136a1.604 1.604 0 0 0-.567.383 1.84 1.84 0 0 0-.369.588c-.087.223-.144.47-.171.738l-.356.205c0-.446.043-.866.13-1.257.091-.392.23-.739.417-1.04.187-.305.424-.542.711-.71.292-.174.638-.26 1.039-.26.091 0 .196.011.315.034.118.018.2.039.246.062Zm3.992 6.536c.301 0 .579-.062.834-.185a1.72 1.72 0 0 0 .629-.506 1.41 1.41 0 0 0 .28-.745h1.203a2.26 2.26 0 0 1-.444 1.224 3.032 3.032 0 0 1-1.06.909 3.072 3.072 0 0 1-1.442.342c-.556 0-1.042-.098-1.456-.294a2.895 2.895 0 0 1-1.026-.807 3.606 3.606 0 0 1-.608-1.176 4.968 4.968 0 0 1-.198-1.415v-.287c0-.497.066-.966.198-1.408.137-.447.339-.84.608-1.183.274-.341.616-.61 1.026-.806.414-.196.9-.294 1.456-.294.579 0 1.084.118 1.517.355a2.61 2.61 0 0 1 1.019.957c.251.401.387.857.41 1.367h-1.203a1.817 1.817 0 0 0-.26-.827 1.621 1.621 0 0 0-.601-.588 1.684 1.684 0 0 0-.882-.225c-.388 0-.713.077-.978.232a1.72 1.72 0 0 0-.622.615c-.15.256-.26.54-.328.855-.064.31-.096.627-.096.95v.287c0 .324.032.643.096.957.064.315.171.6.321.855.155.255.363.46.622.615.265.15.593.226.985.226Zm5.633-9.598V64h-1.265V53.5h1.265Zm-.301 6.522-.527-.021c.005-.506.08-.973.226-1.401.146-.433.351-.81.615-1.128a2.746 2.746 0 0 1 2.167-1.005c.365 0 .693.05.985.15.291.096.54.25.745.465.209.214.369.492.478.834.11.337.164.75.164 1.237V64h-1.271v-4.86c0-.388-.057-.698-.171-.93a1.05 1.05 0 0 0-.499-.513c-.219-.11-.488-.164-.807-.164-.314 0-.601.066-.861.198a2.065 2.065 0 0 0-.663.547 2.763 2.763 0 0 0-.581 1.744Z"/>
    <g clip-path="url(#f)">
      <path fill="#fff" d="M1279.01 63.875c-.08 0-.17-.02-.25-.06L1276 62.37l-2.76 1.446a.537.537 0 0 1-.57-.042.516.516 0 0 1-.19-.235.503.503 0 0 1-.03-.297l.54-3.05-2.23-2.166a.503.503 0 0 1-.14-.252.57.57 0 0 1 .01-.29.581.581 0 0 1 .16-.247.58.58 0 0 1 .28-.121l3.08-.45 1.36-2.778a.64.64 0 0 1 .2-.223.565.565 0 0 1 .29-.083c.1 0 .2.029.29.083a.64.64 0 0 1 .2.223l1.37 2.773 3.09.45c.1.014.2.056.27.121a.52.52 0 0 1 .03.789l-2.23 2.166.54 3.05c.02.101.01.206-.03.302a.497.497 0 0 1-.18.24.557.557 0 0 1-.34.097Zm-3.01-2.654c.09-.002.17.018.25.06l2.04 1.083-.39-2.28a.575.575 0 0 1 .02-.261c.03-.084.07-.16.14-.222l1.62-1.587-2.27-.336a.564.564 0 0 1-.39-.303l-1.02-2.031-1.02 2.031a.565.565 0 0 1-.17.196.526.526 0 0 1-.24.096l-2.28.336 1.63 1.587c.06.062.11.138.14.222.03.084.03.173.02.26l-.39 2.254 2.04-1.084a.49.49 0 0 1 .27-.021Z"/>
    </g>
    <g clip-path="url(#g)">
      <path fill="#fff" d="M1317.37 58.333h-10.74a.63.63 0 0 0-.63.634v.066c0 .35.28.634.63.634h10.74a.63.63 0 0 0 .63-.634v-.066a.63.63 0 0 0-.63-.634Zm0 3.334h-10.74a.63.63 0 0 0-.63.633v.067c0 .35.28.633.63.633h10.74a.63.63 0 0 0 .63-.633V62.3a.63.63 0 0 0-.63-.633Zm0-6.667h-10.74a.63.63 0 0 0-.63.633v.067c0 .35.28.633.63.633h10.74a.63.63 0 0 0 .63-.633v-.067a.63.63 0 0 0-.63-.633Z"/>
    </g>
    <path stroke="#383838" d="M-.5 38.5h1337v41H-.5z"/>
    <g clip-path="url(#h)">
      <g clip-path="url(#i)">
        <path fill="#252525" d="M0 0h647.5v38H0z"/>
        <g clip-path="url(#j)">
          <g clip-path="url(#k)">
            <path fill="#fff" d="M284.25 12.333a6.667 6.667 0 1 0 0 13.335 6.667 6.667 0 0 0 0-13.335Zm0 1.334c.402.002.802.05 1.193.14-.116.261-.294.49-.52.666-.146.114-.306.207-.466.307a3.04 3.04 0 0 0-1.234 1.113 4.326 4.326 0 0 0-.413 2.2c0 .907 0 1.44-.633 1.914-.914.713-2.307.313-3.174-.047a5.334 5.334 0 0 1 5.247-6.293Zm3.26 9.546a4.507 4.507 0 0 0-.42-.76c-.073-.106-.147-.213-.213-.326-.26-.454-.167-.667.253-1.334l.067-.113c.27-.496.404-1.055.386-1.62 0-.224.02-.447.06-.667.107-.486 1.14-.62 1.78-.666a5.29 5.29 0 0 1-1.906 5.52l-.007-.034Z"/>
          </g>
          <path fill="#fff" d="M304.643 14.773V23.5h-1.022l-4.756-6.852h-.085V23.5h-1.057v-8.727h1.023l4.772 6.869h.086v-6.87h1.039Zm4.723 8.863c-.631 0-1.175-.139-1.632-.417a2.8 2.8 0 0 1-1.053-1.176c-.244-.506-.366-1.094-.366-1.765 0-.67.122-1.261.366-1.772a2.887 2.887 0 0 1 1.032-1.202c.443-.29.96-.435 1.551-.435.341 0 .677.057 1.01.17.332.114.635.3.907.555.273.253.49.588.652 1.005.162.418.243.932.243 1.543v.426h-5.045v-.87h4.022c0-.369-.073-.698-.221-.988a1.67 1.67 0 0 0-.622-.686 1.744 1.744 0 0 0-.946-.251c-.401 0-.747.1-1.04.298a1.96 1.96 0 0 0-.669.767 2.257 2.257 0 0 0-.235 1.014v.58c0 .494.086.913.256 1.257.173.34.414.6.72.78.307.176.664.264 1.07.264a2.2 2.2 0 0 0 .716-.11c.216-.078.402-.191.558-.342.156-.153.277-.343.362-.57l.972.272c-.102.33-.274.62-.516.87-.241.246-.539.44-.895.579a3.316 3.316 0 0 1-1.197.204Zm5.723-.136-1.994-6.546h1.056l1.415 5.012h.068l1.398-5.012h1.074l1.381 4.995h.068l1.415-4.995h1.056l-1.994 6.546h-.988l-1.432-5.028h-.103l-1.431 5.028h-.989Zm11.301-7.79v-.937h6.546v.937h-2.745v7.79h-1.057v-7.79h-2.744Zm9.076 7.943c-.415 0-.791-.078-1.13-.234a1.939 1.939 0 0 1-.805-.686c-.199-.301-.298-.665-.298-1.091 0-.375.074-.679.221-.912a1.57 1.57 0 0 1 .593-.554 3.12 3.12 0 0 1 .818-.298 10.1 10.1 0 0 1 .908-.162c.397-.051.72-.09.967-.115.25-.029.432-.075.545-.14.117-.066.175-.18.175-.342v-.034c0-.42-.115-.747-.345-.98-.227-.233-.573-.35-1.036-.35-.48 0-.856.106-1.129.316-.273.21-.464.435-.575.673l-.955-.34c.171-.398.398-.708.682-.93.287-.224.6-.38.938-.468a3.888 3.888 0 0 1 1.005-.137c.211 0 .452.026.725.077.275.048.541.15.797.303.258.153.473.385.643.694.171.31.256.725.256 1.244V23.5h-1.006v-.886h-.051a1.768 1.768 0 0 1-.341.456 1.97 1.97 0 0 1-.635.413c-.264.114-.587.17-.967.17Zm.153-.903c.398 0 .733-.078 1.006-.234a1.597 1.597 0 0 0 .835-1.385v-.92c-.043.05-.136.097-.281.14-.142.04-.307.075-.495.106a22.013 22.013 0 0 1-.963.128 3.91 3.91 0 0 0-.733.166 1.263 1.263 0 0 0-.545.337c-.136.148-.205.35-.205.605 0 .35.13.614.388.793.262.176.593.264.993.264Zm4.819.75v-8.727h1.005v3.221h.086c.073-.113.176-.258.306-.434.134-.18.324-.338.571-.478.25-.142.588-.213 1.015-.213.551 0 1.037.138 1.457.414.42.275.749.666.984 1.171.236.506.354 1.103.354 1.79 0 .694-.118 1.294-.354 1.803-.235.506-.562.898-.98 1.176a2.56 2.56 0 0 1-1.444.413c-.421 0-.757-.07-1.01-.208a1.867 1.867 0 0 1-.584-.482 6.261 6.261 0 0 1-.315-.452h-.12V23.5h-.971Zm.988-3.273c0 .495.073.93.218 1.308.145.375.356.67.635.883.278.21.619.315 1.022.315.421 0 .772-.11 1.053-.332.284-.225.497-.526.639-.904a3.54 3.54 0 0 0 .217-1.27c0-.46-.071-.875-.213-1.244a1.922 1.922 0 0 0-.635-.882c-.281-.219-.635-.328-1.061-.328-.409 0-.753.103-1.031.31a1.87 1.87 0 0 0-.631.862c-.142.366-.213.794-.213 1.282Z"/>
        </g>
        <g clip-path="url(#l)">
          <g clip-path="url(#m)">
            <path fill="#fff" d="m629.44 19 2.867-2.86a.672.672 0 0 0 0-.947.671.671 0 0 0-.947 0l-2.86 2.867-2.86-2.867a.67.67 0 0 0-.947.947L627.56 19l-2.867 2.86a.677.677 0 0 0-.197.473.677.677 0 0 0 .671.67.663.663 0 0 0 .473-.196l2.86-2.867 2.86 2.867a.669.669 0 1 0 .947-.947L629.44 19Z"/>
          </g>
        </g>
        <g clip-path="url(#n)">
          <g clip-path="url(#o)">
            <path fill="#fff" d="M931.75 12.333a6.667 6.667 0 1 0 0 13.335 6.667 6.667 0 0 0 0-13.335Zm0 1.334c.402.002.802.05 1.193.14-.116.261-.294.49-.52.666-.146.114-.306.207-.466.307a3.04 3.04 0 0 0-1.234 1.113 4.326 4.326 0 0 0-.413 2.2c0 .907 0 1.44-.633 1.914-.914.713-2.307.313-3.174-.047a5.334 5.334 0 0 1 5.247-6.293Zm3.26 9.546a4.507 4.507 0 0 0-.42-.76c-.073-.106-.147-.213-.213-.326-.26-.454-.167-.667.253-1.334l.067-.113c.27-.496.404-1.055.386-1.62 0-.224.02-.447.06-.667.107-.486 1.14-.62 1.78-.666a5.29 5.29 0 0 1-1.906 5.52l-.007-.034Z"/>
          </g>
          <path fill="#fff" d="M952.143 14.773V23.5h-1.022l-4.756-6.852h-.085V23.5h-1.057v-8.727h1.023l4.772 6.869h.086v-6.87h1.039Zm4.723 8.863c-.631 0-1.175-.139-1.632-.417a2.8 2.8 0 0 1-1.053-1.176c-.244-.506-.366-1.094-.366-1.765 0-.67.122-1.261.366-1.772a2.887 2.887 0 0 1 1.032-1.202c.443-.29.96-.435 1.551-.435.341 0 .677.057 1.01.17.332.114.635.3.907.555.273.253.49.588.652 1.005.162.418.243.932.243 1.543v.426h-5.045v-.87h4.022c0-.369-.073-.698-.221-.988a1.67 1.67 0 0 0-.622-.686 1.744 1.744 0 0 0-.946-.251c-.401 0-.747.1-1.04.298a1.96 1.96 0 0 0-.669.767 2.257 2.257 0 0 0-.235 1.014v.58c0 .494.086.913.256 1.257.173.34.414.6.72.78.307.176.664.264 1.07.264a2.2 2.2 0 0 0 .716-.11c.216-.078.402-.191.558-.342.156-.153.277-.343.362-.57l.972.272c-.102.33-.274.62-.516.87-.241.246-.539.44-.895.579a3.316 3.316 0 0 1-1.197.204Zm5.723-.136-1.994-6.546h1.056l1.415 5.012h.068l1.398-5.012h1.074l1.381 4.995h.068l1.415-4.995h1.056l-1.994 6.546h-.988l-1.432-5.028h-.103l-1.431 5.028h-.989Zm11.301-7.79v-.937h6.546v.937h-2.745v7.79h-1.057v-7.79h-2.744Zm9.076 7.943c-.415 0-.791-.078-1.13-.234a1.939 1.939 0 0 1-.805-.686c-.199-.301-.298-.665-.298-1.091 0-.375.074-.679.221-.912a1.57 1.57 0 0 1 .593-.554 3.12 3.12 0 0 1 .818-.298 10.1 10.1 0 0 1 .908-.162c.397-.051.72-.09.967-.115.25-.029.432-.075.545-.14.117-.066.175-.18.175-.342v-.034c0-.42-.115-.747-.345-.98-.227-.233-.573-.35-1.036-.35-.48 0-.856.106-1.129.316-.273.21-.464.435-.575.673l-.955-.34c.171-.398.398-.708.682-.93.287-.224.6-.38.938-.468a3.888 3.888 0 0 1 1.005-.137c.211 0 .452.026.725.077.275.048.541.15.797.303.258.153.473.385.643.694.171.31.256.725.256 1.244V23.5h-1.006v-.886h-.051a1.768 1.768 0 0 1-.341.456 1.97 1.97 0 0 1-.635.413c-.264.114-.587.17-.967.17Zm.153-.903c.398 0 .733-.078 1.006-.234a1.597 1.597 0 0 0 .835-1.385v-.92c-.043.05-.136.097-.281.14-.142.04-.307.075-.495.106a22.013 22.013 0 0 1-.963.128 3.91 3.91 0 0 0-.733.166 1.263 1.263 0 0 0-.545.337c-.136.148-.205.35-.205.605 0 .35.13.614.388.793.262.176.593.264.993.264Zm4.819.75v-8.727h1.005v3.221h.086c.073-.113.176-.258.306-.434.134-.18.324-.338.571-.478.25-.142.588-.213 1.015-.213.551 0 1.037.138 1.457.414.42.275.749.666.984 1.171.236.506.354 1.103.354 1.79 0 .694-.118 1.294-.354 1.803-.235.506-.562.898-.98 1.176a2.56 2.56 0 0 1-1.444.413c-.421 0-.757-.07-1.01-.208a1.867 1.867 0 0 1-.584-.482 6.261 6.261 0 0 1-.315-.452h-.12V23.5h-.971Zm.988-3.273c0 .495.073.93.218 1.308.145.375.356.67.635.883.278.21.619.315 1.022.315.421 0 .772-.11 1.053-.332.284-.225.497-.526.639-.904a3.54 3.54 0 0 0 .217-1.27c0-.46-.071-.875-.213-1.244a1.922 1.922 0 0 0-.635-.882c-.281-.219-.635-.328-1.061-.328-.409 0-.753.103-1.031.31a1.87 1.87 0 0 0-.631.862c-.142.366-.213.794-.213 1.282Z"/>
        </g>
        <g clip-path="url(#p)">
          <g clip-path="url(#q)">
            <path fill="#fff" d="m1276.94 19 2.87-2.86a.688.688 0 0 0 0-.947.689.689 0 0 0-.48-.196.68.68 0 0 0-.47.196L1276 18.06l-2.86-2.867a.683.683 0 0 0-.47-.196c-.18 0-.35.07-.48.196a.688.688 0 0 0 0 .947l2.87 2.86-2.87 2.86a.63.63 0 0 0-.14.217.568.568 0 0 0-.05.256c0 .088.01.176.05.257a.63.63 0 0 0 .36.363.672.672 0 0 0 .73-.146l2.86-2.867 2.86 2.867a.67.67 0 0 0 1.09-.217.568.568 0 0 0 .05-.257.568.568 0 0 0-.05-.256.63.63 0 0 0-.14-.217l-2.87-2.86Z"/>
          </g>
        </g>
      </g>
      <g clip-path="url(#r)">
        <path fill="#fff" d="M1321.67 18.333h-4v-4a.651.651 0 0 0-.2-.471.65.65 0 0 0-.47-.195.65.65 0 0 0-.47.195.651.651 0 0 0-.2.471v4h-4a.68.68 0 0 0-.47.196.683.683 0 0 0 0 .942c.13.125.3.196.47.196h4v4c0 .176.07.346.2.471a.65.65 0 0 0 .47.195c.18 0 .35-.07.47-.195.13-.125.2-.295.2-.471v-4h4c.17 0 .34-.07.47-.196a.683.683 0 0 0 0-.942.685.685 0 0 0-.47-.196Z"/>
      </g>
      <path fill="#1E1E1E" d="M1299 38V0h-2v38h2Z" mask="url(#path-27-inside-1_1_3)"/>
    </g>
    <path stroke="#383838" d="M-.5-.5h1337v39H-.5z"/>
  </g>
  <defs>
    <clipPath id="a">
      <path fill="#fff" d="M0 0h1336v768H0z"/>
    </clipPath>
    <clipPath id="b">
      <path fill="#fff" d="M0 0h16v16H0z" transform="translate(16 51)"/>
    </clipPath>
    <clipPath id="c">
      <path fill="#fff" d="M0 0h16v16H0z" transform="rotate(180 34 33.5)"/>
    </clipPath>
    <clipPath id="d">
      <path fill="#fff" d="M0 0h16v16H0z" transform="translate(88 51)"/>
    </clipPath>
    <clipPath id="e">
      <path fill="#fff" d="M0 0h13v13H0z" transform="translate(125.5 52.5)"/>
    </clipPath>
    <clipPath id="f">
      <path fill="#fff" d="M0 0h13v13H0z" transform="translate(1269.5 52.5)"/>
    </clipPath>
    <clipPath id="g">
      <path fill="#fff" d="M0 0h16v16H0z" transform="translate(1304 51)"/>
    </clipPath>
    <clipPath id="h">
      <path fill="#fff" d="M0 0h1336v38H0z"/>
    </clipPath>
    <clipPath id="i">
      <path fill="#fff" d="M0 0h1295v38H0z"/>
    </clipPath>
    <clipPath id="j">
      <path fill="#fff" d="M0 0h71v16H0z" transform="translate(276.25 11)"/>
    </clipPath>
    <clipPath id="k">
      <path fill="#fff" d="M0 0h16v16H0z" transform="translate(276.25 11)"/>
    </clipPath>
    <clipPath id="l">
      <path fill="#fff" d="M0 0h16v16H0z" transform="translate(620.5 11)"/>
    </clipPath>
    <clipPath id="m">
      <path fill="#fff" d="M0 0h16v16H0z" transform="translate(620.5 11)"/>
    </clipPath>
    <clipPath id="n">
      <path fill="#fff" d="M0 0h71v16H0z" transform="translate(923.75 11)"/>
    </clipPath>
    <clipPath id="o">
      <path fill="#fff" d="M0 0h16v16H0z" transform="translate(923.75 11)"/>
    </clipPath>
    <clipPath id="p">
      <path fill="#fff" d="M0 0h16v16H0z" transform="translate(1268 11)"/>
    </clipPath>
    <clipPath id="q">
      <path fill="#fff" d="M0 0h16v16H0z" transform="translate(1268 11)"/>
    </clipPath>
    <clipPath id="r">
      <path fill="#fff" d="M0 0h16v16H0z" transform="translate(1309 11)"/>
    </clipPath>
  </defs>
</svg>
